<svg width="430" height="431" viewBox="0 0 430 431" fill="none" xmlns="http://www.w3.org/2000/svg">
<path d="M354.42 135.78C354.42 135.69 354.42 135.59 354.41 135.5C354.39 135.29 354.37 135.09 354.33 134.89C354.33 134.84 354.32 134.8 354.31 134.75C354.26 134.5 354.19 134.26 354.11 134.03C354.09 133.96 354.06 133.89 354.04 133.83C353.96 133.63 353.88 133.43 353.78 133.24C353.76 133.2 353.74 133.16 353.72 133.11C353.6 132.89 353.47 132.68 353.32 132.48C353.28 132.42 353.23 132.36 353.18 132.3C353.03 132.11 352.88 131.93 352.71 131.76C352.7 131.75 352.68 131.73 352.67 131.71L246.01 25.03C245.78 24.79 245.53 24.58 245.27 24.38C245.26 24.38 245.25 24.36 245.24 24.36C244.78 24.02 244.27 23.75 243.72 23.55C243.72 23.55 243.71 23.55 243.7 23.55C243.18 23.37 242.63 23.25 242.05 23.22C242.02 23.22 241.99 23.22 241.95 23.22C241.87 23.22 241.78 23.21 241.7 23.21H81.5703C78.2603 23.21 75.5703 25.9 75.5703 29.21V402.33C75.5703 405.64 78.2603 408.33 81.5703 408.33H348.43C351.74 408.33 354.43 405.64 354.43 402.33V135.94C354.43 135.88 354.43 135.83 354.43 135.78H354.42ZM87.5703 396.33V35.19H235.69V135.94C235.69 139.25 238.38 141.94 241.69 141.94H342.43V396.33H87.5703ZM301.06 296.06C301.06 299.37 298.37 302.06 295.06 302.06H134.94C131.63 302.06 128.94 299.37 128.94 296.06C128.94 292.75 131.63 290.06 134.94 290.06H295.06C298.37 290.06 301.06 292.75 301.06 296.06ZM301.06 349.43C301.06 352.74 298.37 355.43 295.06 355.43H241.69C238.38 355.43 235.69 352.74 235.69 349.43C235.69 346.12 238.38 343.43 241.69 343.43H295.06C298.37 343.43 301.06 346.12 301.06 349.43ZM221 349.43C221 352.74 218.31 355.43 215 355.43H134.94C131.63 355.43 128.94 352.74 128.94 349.43C128.94 346.12 131.63 343.43 134.94 343.43H215C218.31 343.43 221 346.12 221 349.43ZM173.27 189.23C172.76 186.07 174.82 183.07 177.95 182.41C192.95 179.24 208.17 174.25 210.53 171.73C211.67 170.46 213.29 169.74 215 169.74C216.71 169.74 218.33 170.47 219.46 171.74C221.82 174.26 237.05 179.25 252.04 182.42C255.17 183.08 257.23 186.09 256.72 189.25L251.52 221.53C251.5 221.68 251.47 221.82 251.43 221.97C249.01 232.09 243.2 241.22 235.06 247.7L218.69 260.53C217.6 261.38 216.3 261.81 214.99 261.81C213.68 261.81 212.38 261.38 211.29 260.53L194.96 247.73C186.79 241.23 180.97 232.09 178.56 221.97C178.52 221.82 178.5 221.68 178.47 221.53L173.27 189.25V189.23Z" fill="url(#paint0_linear_2121_10728)"/>
<defs>
<linearGradient id="paint0_linear_2121_10728" x1="24.0703" y1="78.2" x2="352.56" y2="406.69" gradientUnits="userSpaceOnUse">
<stop stop-color="#CB5EEE"/>
<stop offset="1" stop-color="#4BE1EC"/>
</linearGradient>
</defs>
</svg>
